<svg xmlns="http://www.w3.org/2000/svg" width="56.453" height="52.009" viewBox="0 0 56.453 52.009">
  <g id="Groupe_1384" data-name="Groupe 1384" transform="translate(0 0)">
    <path id="Tracé_675" data-name="Tracé 675" d="M6160.422,418.736c-1.529,6.02-5.168,10.5-10.093,14.061l-.209-.232c5.8-6.416,1.713-15.3-3.737-19.326-4.436-3.279-8.988-6.4-13.413-9.7a49.667,49.667,0,0,1-9.956-9.741,14.926,14.926,0,0,1-1.669-2.683c-1.433-3.056-.644-5.661,2.244-7.37a18.825,18.825,0,0,1,5.636-2.1,37.4,37.4,0,0,1,8.532-.264,25.358,25.358,0,0,1,8.335,2.6,4.742,4.742,0,0,1,2.068,1.366c-.748.218-1.218-.215-1.744-.4-2.244-.778-4.5-1.419-6.891-.676-2.45.762-3.271,2.612-2.213,4.948a12.177,12.177,0,0,0,2,2.984c4.367,4.985,9.676,8.9,14.8,13.017.078.063.252,0,.616,0-1.159-1.635-2.276-3.1-3.288-4.631a14.4,14.4,0,0,1-2.728-6.582c-.169-1.825.665-3.612,1.966-4.156,2.315-.966,6.131,1.53,6.321,4.133-.132-.067-.264-.127-.386-.2-1.137-.683-2.316-1.072-3.474-.137-1.227,1-1,2.315-.514,3.568a21.453,21.453,0,0,0,2.7,4.58c2.135,3.045,5.081,5.8,5.622,9.583A25.067,25.067,0,0,1,6160.422,418.736Z" transform="translate(-6104.6 -381.254)" fill="#19b0d2"/>
    <path id="Tracé_676" data-name="Tracé 676" d="M6051.72,457.024c.358-1.449.674-2.846,1.129-4.239a24.027,24.027,0,0,1,2.083-5.015,3.251,3.251,0,0,1,.349,1.852c.436,4.862,3.348,8.257,6.73,11.345a76.863,76.863,0,0,0,8.858,6.652,20.294,20.294,0,0,1,6.669,7.233,12.871,12.871,0,0,1,.8,1.852c1.352,3.95-.2,6.631-4.26,7.409a18.011,18.011,0,0,1-17.729-7.668,36.2,36.2,0,0,1-4.5-11.012A20.188,20.188,0,0,1,6051.72,457.024Z" transform="translate(-6051.333 -432.369)" fill="#19b0d2"/>
  </g>
</svg>
